# xmcd
#
# Track frame offsets:
#	207
#	9432
#	31727
#	62672
#	87220
#	107230
#	126857
#	148635
#	167575
#	177895
#	196262
#	227592
#	248445
#	274035
#	294162
#	321500
#	337902
#
# Disc length: 4701 seconds
#
# Revision: 2
# Processed by: cddbd v1.4PL0 Copyright (c) Steve Scherf et al.
# Submitted via: CDmax 2.0
#
DISCID=de125b11
DTITLE=Butch Hancock - Own And Own
DYEAR=1991
DGENRE=Country
TTITLE0=Dry Land Farm
TTITLE1=Wind's Dominion
TTITLE2=Diamond Hill
TTITLE3=1981: A Spare Odyssey
TTITLE4=Firewater Seeks Its Own Level
TTITLE5=West Texas Waltz
TTITLE6=Horseflies
TTITLE7=If You Were A Bluebird
TTITLE8=Own and Own
TTITLE9=Fools Fall In Love
TTITLE10=Yella Rose
TTITLE11=Like A Kiss On The Mouth
TTITLE12=The Ghost Of Give And Take Avenue
TTITLE13=Tell Me What You Want To Know
TTITLE14=Just A Storm
TTITLE15=Just Tell Me That
TTITLE16=When Will You Hold Me Again
EXTD=
EXTT0=
EXTT1=
EXTT2=
EXTT3=
EXTT4=
EXTT5=
EXTT6=
EXTT7=
EXTT8=
EXTT9=
EXTT10=
EXTT11=
EXTT12=
EXTT13=
EXTT14=
EXTT15=
EXTT16=
PLAYORDER=
